<svg xmlns="http://www.w3.org/2000/svg" xmlns:xlink="http://www.w3.org/1999/xlink" width="2048" zoomAndPan="magnify" viewBox="0 0 1536 1535.999932" height="2048" preserveAspectRatio="xMidYMid meet" version="1.0"><path stroke-linecap="butt" transform="matrix(0.530784, -0.529875, 0.529875, 0.530784, 1040.041697, 1358.397872)" fill="none" stroke-linejoin="miter" d="M -0.00103777 19.502422 L 463.695486 19.499166 " stroke="#ffffff" stroke-width="39" stroke-opacity="1" stroke-miterlimit="4"/><path stroke-linecap="butt" transform="matrix(0.75, 0, 0, 0.75, 167.02502, 470.774916)" fill="none" stroke-linejoin="miter" d="M -0.00210937 19.498031 L 741.747954 19.498031 " stroke="#ffffff" stroke-width="39" stroke-opacity="1" stroke-miterlimit="4"/><path stroke-linecap="butt" transform="matrix(0, 0.75, -0.75, 0, 1379.174436, 171.450433)" fill="none" stroke-linejoin="miter" d="M -0.0016194 19.498207 L 243.94111 19.498207 " stroke="#ffffff" stroke-width="39" stroke-opacity="1" stroke-miterlimit="4"/><path stroke-linecap="butt" transform="matrix(0.75, 0, 0, 0.75, 476.399993, 156.824967)" fill="none" stroke-linejoin="miter" d="M -0.002074 19.499005 L 821.628205 19.499005 " stroke="#ffffff" stroke-width="39" stroke-opacity="1" stroke-miterlimit="4"/><path stroke-linecap="butt" transform="matrix(0.53033, -0.53033, 0.53033, 0.53033, 1041.532913, 473.707019)" fill="none" stroke-linejoin="miter" d="M 0.0021042 19.499125 L 316.940648 19.499125 " stroke="#ffffff" stroke-width="39" stroke-opacity="1" stroke-miterlimit="4"/><path stroke-linecap="butt" transform="matrix(0.530503, -0.530157, 0.530157, 0.530503, 1113.13693, 1500.205387)" fill="none" stroke-linejoin="miter" d="M 0.00010002 16.997695 L 476.188702 17.001071 " stroke="#ffffff" stroke-width="34" stroke-opacity="1" stroke-miterlimit="4"/><path stroke-linecap="butt" transform="matrix(0.75, 0, 0, 0.75, 26.625032, 403.949921)" fill="none" stroke-linejoin="miter" d="M -0.0000420895 16.999065 L 988.036501 16.999065 " stroke="#ffffff" stroke-width="34" stroke-opacity="1" stroke-miterlimit="4"/><path stroke-linecap="butt" transform="matrix(0, 0.75, -0.75, 0, 1517.996496, 163.020595)" fill="none" stroke-linejoin="miter" d="M -0.0014181 17.000537 L 171.477763 17.000537 " stroke="#ffffff" stroke-width="34" stroke-opacity="1" stroke-miterlimit="4"/><path stroke-linecap="butt" transform="matrix(0.75, 0, 0, 0.75, 412.874998, 17.774978)" fill="none" stroke-linejoin="miter" d="M 0.00000206774 16.997947 L 987.573003 16.997947 " stroke="#ffffff" stroke-width="34" stroke-opacity="1" stroke-miterlimit="4"/><path stroke-linecap="butt" transform="matrix(0.000000001309, 0.75, -0.75, 0.000000001309, 1379.173284, 446.726846)" fill="none" stroke-linejoin="miter" d="M -0.00037763 19.50188 L 679.239264 19.501881 " stroke="#ffffff" stroke-width="39" stroke-opacity="1" stroke-miterlimit="4"/><path stroke-linecap="butt" transform="matrix(0.75, 0, 0, 0.75, 834.12289, 470.774916)" fill="none" stroke-linejoin="miter" d="M -0.00239544 19.498031 L 294.534088 19.498031 " stroke="#ffffff" stroke-width="39" stroke-opacity="1" stroke-miterlimit="4"/><path stroke-linecap="butt" transform="matrix(0.75, 0, 0, 0.75, 1184.943916, 156.824967)" fill="none" stroke-linejoin="miter" d="M 0.00186167 19.499005 L 258.876884 19.499005 " stroke="#ffffff" stroke-width="39" stroke-opacity="1" stroke-miterlimit="4"/><path stroke-linecap="butt" transform="matrix(0.75, 0, 0, 0.75, 1255.108054, 17.774978)" fill="none" stroke-linejoin="miter" d="M 0.00176102 16.997947 L 162.730942 16.997947 " stroke="#ffffff" stroke-width="34" stroke-opacity="1" stroke-miterlimit="4"/><path stroke-linecap="butt" transform="matrix(0.75, -0.000000000000000279, 0.000000000000000279, 0.75, 865.5122, 403.949921)" fill="none" stroke-linejoin="miter" d="M -0.000641186 16.999065 L 340.785846 16.999065 " stroke="#ffffff" stroke-width="34" stroke-opacity="1" stroke-miterlimit="4"/><path stroke-linecap="butt" transform="matrix(0, 0.75, -0.75, 0, 1517.998848, 395.026295)" fill="none" stroke-linejoin="miter" d="M 0.00139843 16.998465 L 982.298358 16.998465 " stroke="#ffffff" stroke-width="34" stroke-opacity="1" stroke-miterlimit="4"/><path stroke-linecap="butt" transform="matrix(0.53033, -0.53033, 0.53033, 0.53033, 1273.480005, 241.761302)" fill="none" stroke-linejoin="miter" d="M 0.0000450774 19.497828 L 154.628106 19.497828 " stroke="#ffffff" stroke-width="39" stroke-opacity="1" stroke-miterlimit="4"/><path stroke-linecap="butt" transform="matrix(0.53033, -0.53033, 0.53033, 0.53033, 1435.469095, 1177.873463)" fill="none" stroke-linejoin="miter" d="M -0.00177414 17.001151 L 120.3758 17.001151 " stroke="#ffffff" stroke-width="34" stroke-opacity="1" stroke-miterlimit="4"/><path stroke-linecap="butt" transform="matrix(0, 0.75, -0.75, 0, 43.301646, 412.504937)" fill="none" stroke-linejoin="miter" d="M -0.00137384 17.001155 L 1459.686251 17.001155 " stroke="#ffffff" stroke-width="34" stroke-opacity="1" stroke-miterlimit="4"/><path stroke-linecap="butt" transform="matrix(0.75, 0, 0, 0.75, 18.000032, 1492.69322)" fill="none" stroke-linejoin="miter" d="M -0.0000430755 16.997583 L 1485.000084 16.997583 " stroke="#ffffff" stroke-width="34" stroke-opacity="1" stroke-miterlimit="4"/><path stroke-linecap="butt" transform="matrix(0, 0.75, -0.75, 0, 1132.033881, 414.895384)" fill="none" stroke-linejoin="miter" d="M -0.00113757 16.998301 L 1456.498987 16.998301 " stroke="#ffffff" stroke-width="34" stroke-opacity="1" stroke-miterlimit="4"/><path stroke-linecap="butt" transform="matrix(0, 0.75, -0.75, 0, 186.07203, 477.005387)" fill="none" stroke-linejoin="miter" d="M -0.00197447 19.502292 L 1189.295003 19.502292 " stroke="#ffffff" stroke-width="39" stroke-opacity="1" stroke-miterlimit="4"/><path stroke-linecap="butt" transform="matrix(0.530318, -0.530342, 0.530342, 0.530318, 156.669424, 476.863043)" fill="none" stroke-linejoin="miter" d="M 0.00165515 19.499534 L 602.824967 19.498143 " stroke="#ffffff" stroke-width="39" stroke-opacity="1" stroke-miterlimit="4"/><path stroke-linecap="butt" transform="matrix(0.75, 0, 0, 0.75, 156.82502, 1349.906696)" fill="none" stroke-linejoin="miter" d="M -0.00106887 19.499407 L 1205.400076 19.499407 " stroke="#ffffff" stroke-width="39" stroke-opacity="1" stroke-miterlimit="4"/><path stroke-linecap="butt" transform="matrix(0.75, 0, 0, 0.75, 301.875008, 1207.98386)" fill="none" stroke-linejoin="miter" d="M -0.0000106221 18.000688 L 585.984415 18.000688 " stroke="#ffffff" stroke-width="36" stroke-opacity="1" stroke-miterlimit="4"/><path stroke-linecap="butt" transform="matrix(0, -0.75, 0.75, 0, 894.023045, 1224.472723)" fill="none" stroke-linejoin="miter" d="M 0.0000890147 18.000525 L 660.458479 18.000525 " stroke="#ffffff" stroke-width="36" stroke-opacity="1" stroke-miterlimit="4"/><path stroke-linecap="butt" transform="matrix(0, -0.75, 0.75, 0, 301.838182, 1224.471907)" fill="none" stroke-linejoin="miter" d="M -0.000998985 18.002217 L 797.556361 18.002217 " stroke="#ffffff" stroke-width="36" stroke-opacity="1" stroke-miterlimit="4"/><path stroke-linecap="butt" transform="matrix(0, -0.75, 0.75, 0, 894.046829, 668.805211)" fill="none" stroke-linejoin="miter" d="M 0.00069754 18.000063 L 56.667369 18.000063 " stroke="#ffffff" stroke-width="36" stroke-opacity="1" stroke-miterlimit="4"/><path stroke-linecap="butt" transform="matrix(0.53033, -0.53033, 0.53033, 0.53033, 17.99967, 412.642913)" fill="none" stroke-linejoin="miter" d="M -0.00121462 17.001864 L 744.644895 16.998182 " stroke="#ffffff" stroke-width="34" stroke-opacity="1" stroke-miterlimit="4"/><path stroke-linecap="butt" transform="matrix(0, 0.75, -0.75, 0, 1065.222015, 480.946907)" fill="none" stroke-linejoin="miter" d="M -0.00212568 19.499146 L 1184.034434 19.499146 " stroke="#ffffff" stroke-width="39" stroke-opacity="1" stroke-miterlimit="4"/><path stroke-linecap="butt" transform="matrix(0.530131, -0.530529, 0.530529, 0.530131, 1110.815555, 407.150417)" fill="none" stroke-linejoin="miter" d="M -0.0000127455 17.002647 L 188.863814 16.999691 " stroke="#ffffff" stroke-width="34" stroke-opacity="1" stroke-miterlimit="4"/><path stroke-linecap="butt" transform="matrix(0.53033, -0.53033, 0.53033, 0.53033, 1274.805861, 243.087146)" fill="none" stroke-linejoin="miter" d="M 0.0000337637 16.997781 L 154.628095 16.997781 " stroke="#ffffff" stroke-width="34" stroke-opacity="1" stroke-miterlimit="4"/></svg>