<svg xmlns="http://www.w3.org/2000/svg" xmlns:xlink="http://www.w3.org/1999/xlink" width="40" zoomAndPan="magnify" viewBox="0 0 30 30.000001" height="40" preserveAspectRatio="xMidYMid meet" version="1.0"><defs><clipPath id="516e84bdce"><path d="M 5.769531 11 L 23.914062 11 L 23.914062 18 L 5.769531 18 Z M 5.769531 11 " clip-rule="nonzero"/></clipPath></defs><g clip-path="url(#516e84bdce)"><path fill="#4b5563" d="M 23.003906 12.882812 C 23.003906 12.894531 23.011719 12.898438 23.058594 12.898438 L 23.613281 12.898438 C 23.707031 12.898438 23.796875 12.878906 23.882812 12.839844 C 23.964844 12.796875 24.035156 12.742188 24.09375 12.667969 C 24.152344 12.597656 24.191406 12.515625 24.214844 12.421875 C 24.234375 12.332031 24.234375 12.242188 24.214844 12.152344 C 24.179688 11.996094 24.097656 11.871094 23.96875 11.78125 C 23.835938 11.6875 23.691406 11.652344 23.535156 11.675781 C 23.382812 11.695312 23.253906 11.761719 23.152344 11.878906 C 23.050781 11.996094 23 12.132812 23.003906 12.285156 C 23.003906 12.363281 23 12.796875 23.003906 12.882812 Z M 14.148438 16.582031 C 13.992188 16.582031 13.109375 16.585938 12.855469 16.585938 C 12.652344 16.582031 12.457031 16.550781 12.265625 16.488281 C 12.253906 16.484375 12.246094 16.488281 12.242188 16.5 L 11.691406 17.691406 C 11.6875 17.699219 11.6875 17.707031 11.699219 17.714844 C 11.785156 17.761719 11.957031 17.808594 12.078125 17.808594 C 12.585938 17.816406 13.09375 17.8125 13.605469 17.808594 C 13.613281 17.808594 13.617188 17.804688 13.621094 17.796875 L 14.167969 16.609375 C 14.179688 16.589844 14.171875 16.582031 14.152344 16.582031 Z M 6.132812 12.90625 C 6.082031 12.90625 6.078125 12.910156 6.078125 12.914062 C 6.074219 12.9375 6.070312 12.957031 6.070312 12.976562 C 6.046875 13.28125 6.039062 13.359375 5.886719 15.332031 C 5.878906 15.515625 5.863281 15.628906 5.785156 15.796875 C 5.765625 15.839844 5.757812 15.828125 5.785156 15.882812 C 5.824219 15.953125 6.3125 17.054688 6.390625 17.222656 C 6.398438 17.234375 6.402344 17.238281 6.40625 17.238281 C 6.410156 17.238281 6.429688 17.21875 6.441406 17.203125 C 6.554688 17.058594 6.648438 16.902344 6.726562 16.738281 C 6.960938 16.25 7.066406 15.71875 7.101562 15.425781 C 7.113281 15.339844 7.117188 15.257812 7.125 15.171875 L 7.28125 13.160156 L 7.296875 12.933594 C 7.300781 12.910156 7.296875 12.910156 7.273438 12.90625 Z M 11.675781 15.796875 C 11.605469 15.648438 11.570312 15.492188 11.570312 15.332031 C 11.570312 15.265625 11.546875 15.03125 11.390625 12.976562 C 11.390625 12.957031 11.386719 12.933594 11.382812 12.914062 C 11.378906 12.90625 11.34375 12.90625 11.324219 12.90625 L 10.1875 12.90625 C 10.164062 12.910156 10.160156 12.910156 10.164062 12.933594 L 10.179688 13.160156 C 10.238281 13.914062 10.296875 14.667969 10.359375 15.425781 C 10.398438 15.734375 10.5 16.261719 10.734375 16.738281 C 10.8125 16.902344 10.90625 17.058594 11.019531 17.203125 C 11.03125 17.21875 11.046875 17.242188 11.054688 17.242188 C 11.070312 17.238281 11.625 15.976562 11.671875 15.882812 C 11.703125 15.828125 11.695312 15.839844 11.675781 15.796875 Z M 14.644531 15.09375 L 13.976562 15.09375 C 13.941406 15.09375 13.914062 15.082031 13.894531 15.050781 C 13.875 15.023438 13.871094 14.992188 13.886719 14.957031 L 14.792969 12.9375 C 14.800781 12.921875 14.792969 12.910156 14.773438 12.910156 L 13.761719 12.910156 C 13.71875 12.910156 13.6875 12.890625 13.664062 12.859375 C 13.640625 12.824219 13.640625 12.785156 13.65625 12.75 L 14.332031 11.246094 C 14.339844 11.226562 14.332031 11.21875 14.3125 11.21875 L 13.113281 11.21875 C 13.105469 11.21875 13.097656 11.222656 13.09375 11.230469 L 12.382812 12.820312 C 12.316406 12.949219 12.140625 13.308594 12.074219 13.542969 C 12.0625 13.589844 12.054688 13.640625 12.058594 13.6875 C 12.066406 13.820312 12.125 13.914062 12.238281 13.980469 C 12.347656 14.039062 12.464844 14.070312 12.589844 14.070312 L 13.042969 14.070312 C 13.074219 14.070312 12.515625 15.210938 12.402344 15.589844 C 12.390625 15.632812 12.382812 15.675781 12.386719 15.722656 C 12.386719 15.855469 12.445312 15.957031 12.5625 16.027344 C 12.675781 16.097656 12.824219 16.121094 12.925781 16.121094 L 14.203125 16.117188 C 14.210938 16.117188 14.21875 16.113281 14.222656 16.105469 L 14.664062 15.121094 C 14.671875 15.101562 14.667969 15.09375 14.644531 15.09375 Z M 9.316406 11.296875 L 8.152344 11.296875 C 8.132812 11.296875 8.125 11.304688 8.125 11.324219 C 8.125 12.128906 8.117188 13.472656 8.117188 16.578125 C 8.117188 16.796875 7.910156 16.777344 7.902344 16.777344 L 7.335938 16.777344 C 7.304688 16.777344 7.300781 16.78125 7.304688 16.8125 C 7.304688 16.84375 7.660156 17.632812 7.730469 17.785156 C 7.738281 17.800781 7.753906 17.8125 7.769531 17.8125 C 7.890625 17.8125 8.359375 17.816406 8.492188 17.800781 C 8.609375 17.785156 8.722656 17.753906 8.828125 17.699219 C 9.058594 17.578125 9.203125 17.375 9.285156 17.109375 C 9.324219 16.976562 9.34375 16.839844 9.34375 16.699219 C 9.34375 14.90625 9.34375 13.113281 9.339844 11.320312 C 9.339844 11.304688 9.328125 11.296875 9.3125 11.296875 Z M 18.378906 16.601562 C 18.378906 16.589844 18.371094 16.585938 18.363281 16.585938 L 17.234375 16.585938 C 17.199219 16.585938 17.195312 16.582031 17.195312 16.546875 L 17.195312 12.960938 C 17.195312 12.90625 17.191406 12.910156 17.25 12.910156 L 17.914062 12.910156 C 17.976562 12.910156 17.972656 12.910156 17.972656 12.851562 L 17.972656 11.742188 C 17.972656 11.675781 17.976562 11.683594 17.910156 11.683594 L 15.21875 11.683594 C 15.167969 11.683594 15.160156 11.675781 15.160156 11.738281 L 15.160156 12.851562 C 15.160156 12.914062 15.15625 12.910156 15.222656 12.910156 L 15.878906 12.910156 C 15.9375 12.910156 15.933594 12.90625 15.933594 12.960938 L 15.933594 16.519531 C 15.933594 16.59375 15.9375 16.585938 15.867188 16.585938 C 15.582031 16.585938 15.011719 16.582031 14.863281 16.585938 C 14.828125 16.585938 14.816406 16.609375 14.816406 16.609375 L 14.28125 17.777344 C 14.28125 17.777344 14.269531 17.796875 14.273438 17.804688 C 14.28125 17.8125 14.285156 17.808594 14.320312 17.808594 C 15.664062 17.8125 17.007812 17.8125 18.351562 17.8125 C 18.375 17.8125 18.378906 17.808594 18.378906 17.785156 Z M 21.59375 13.964844 C 21.59375 13.972656 21.589844 13.980469 21.578125 13.980469 C 21.3125 13.988281 21.046875 13.984375 20.78125 13.984375 C 20.769531 13.984375 20.761719 13.976562 20.761719 13.964844 C 20.757812 13.632812 20.757812 13.296875 20.753906 12.964844 C 20.753906 12.910156 20.75 12.910156 20.808594 12.910156 L 21.375 12.910156 C 21.40625 12.910156 21.4375 12.910156 21.464844 12.917969 C 21.539062 12.9375 21.589844 13.003906 21.59375 13.078125 C 21.597656 13.410156 21.59375 13.964844 21.59375 13.964844 Z M 23.648438 14.152344 C 23.433594 14.039062 23.207031 13.984375 22.96875 13.980469 L 22.828125 13.980469 C 22.800781 13.980469 22.800781 13.976562 22.796875 13.949219 L 22.796875 13.136719 C 22.796875 13.035156 22.792969 12.9375 22.777344 12.835938 C 22.757812 12.691406 22.71875 12.558594 22.660156 12.425781 C 22.546875 12.1875 22.375 12.003906 22.140625 11.882812 C 21.898438 11.753906 21.644531 11.6875 21.371094 11.683594 C 21.253906 11.679688 20.933594 11.683594 20.816406 11.683594 C 20.761719 11.683594 20.765625 11.6875 20.765625 11.632812 L 20.765625 11.253906 C 20.765625 11.230469 20.757812 11.222656 20.730469 11.222656 L 19.5625 11.222656 C 19.5625 11.222656 19.546875 11.222656 19.542969 11.230469 C 19.539062 11.234375 19.539062 11.238281 19.539062 11.246094 L 19.539062 11.667969 C 19.53125 11.695312 19.492188 11.679688 19.472656 11.683594 L 18.742188 11.683594 C 18.726562 11.683594 18.722656 11.691406 18.71875 11.707031 L 18.71875 12.847656 C 18.71875 12.917969 18.71875 12.910156 18.785156 12.910156 L 19.484375 12.910156 C 19.546875 12.910156 19.539062 13.007812 19.539062 13.007812 L 19.539062 13.890625 C 19.539062 13.890625 19.542969 13.980469 19.496094 13.980469 L 18.355469 13.980469 C 18.300781 13.980469 18.308594 14.046875 18.308594 14.046875 L 18.308594 15.15625 C 18.308594 15.15625 18.300781 15.210938 18.359375 15.210938 L 19.480469 15.210938 C 19.542969 15.210938 19.539062 15.203125 19.539062 15.269531 L 19.539062 17.75 C 19.539062 17.820312 19.53125 17.8125 19.601562 17.8125 L 20.699219 17.8125 C 20.769531 17.8125 20.761719 17.820312 20.761719 17.75 L 20.761719 15.234375 C 20.761719 15.214844 20.769531 15.210938 20.789062 15.210938 L 22.574219 15.207031 C 22.652344 15.207031 22.722656 15.222656 22.792969 15.253906 C 22.925781 15.3125 22.996094 15.417969 23.003906 15.566406 C 23.007812 15.871094 23.003906 16.175781 23.003906 16.476562 C 23.003906 16.675781 22.921875 16.761719 22.75 16.761719 L 21.8125 16.761719 C 21.796875 16.761719 21.792969 16.765625 21.792969 16.785156 C 21.933594 17.121094 22.078125 17.457031 22.230469 17.789062 C 22.238281 17.800781 22.246094 17.808594 22.261719 17.808594 C 22.390625 17.8125 22.523438 17.808594 22.652344 17.8125 C 22.769531 17.808594 23.050781 17.8125 23.164062 17.804688 C 23.273438 17.792969 23.378906 17.777344 23.480469 17.746094 C 23.933594 17.605469 24.230469 17.207031 24.230469 16.734375 L 24.230469 15.210938 C 24.230469 15.113281 24.222656 15.015625 24.203125 14.917969 C 24.203125 14.980469 24.183594 14.425781 23.648438 14.152344 Z M 23.648438 14.152344 " fill-opacity="1" fill-rule="nonzero"/></g></svg>