<svg xmlns="http://www.w3.org/2000/svg" xmlns:xlink="http://www.w3.org/1999/xlink" width="40" zoomAndPan="magnify" viewBox="0 0 30 30.000001" height="40" preserveAspectRatio="xMidYMid meet" version="1.0"><defs><clipPath id="ce130b8744"><path d="M 2.972656 10 L 26.925781 10 L 26.925781 19 L 2.972656 19 Z M 2.972656 10 " clip-rule="nonzero"/></clipPath></defs><g clip-path="url(#ce130b8744)"><path fill="#000000" d="M 25.332031 12.347656 C 25.335938 12.363281 25.34375 12.367188 25.402344 12.367188 L 26.125 12.367188 C 26.246094 12.367188 26.363281 12.34375 26.472656 12.289062 C 26.582031 12.238281 26.671875 12.164062 26.75 12.070312 C 26.824219 11.976562 26.875 11.871094 26.902344 11.75 C 26.929688 11.632812 26.933594 11.515625 26.90625 11.398438 C 26.859375 11.195312 26.753906 11.035156 26.585938 10.917969 C 26.414062 10.796875 26.226562 10.753906 26.023438 10.78125 C 25.824219 10.808594 25.660156 10.894531 25.527344 11.046875 C 25.394531 11.199219 25.332031 11.371094 25.332031 11.574219 C 25.332031 11.675781 25.332031 12.238281 25.332031 12.347656 Z M 13.847656 17.148438 C 13.644531 17.148438 12.496094 17.152344 12.164062 17.148438 C 11.90625 17.148438 11.648438 17.105469 11.402344 17.023438 C 11.386719 17.019531 11.378906 17.023438 11.371094 17.039062 L 10.65625 18.585938 C 10.652344 18.597656 10.65625 18.609375 10.667969 18.617188 C 10.777344 18.675781 11.003906 18.738281 11.160156 18.738281 C 11.820312 18.75 12.480469 18.742188 13.140625 18.738281 C 13.148438 18.738281 13.160156 18.734375 13.160156 18.726562 L 13.871094 17.183594 C 13.886719 17.15625 13.878906 17.144531 13.847656 17.148438 Z M 3.449219 12.378906 C 3.378906 12.378906 3.375 12.382812 3.375 12.390625 C 3.367188 12.417969 3.367188 12.441406 3.363281 12.46875 C 3.335938 12.867188 3.324219 12.964844 3.128906 15.523438 C 3.117188 15.761719 3.097656 15.910156 2.996094 16.128906 C 2.96875 16.1875 2.960938 16.171875 3 16.242188 C 3.042969 16.332031 3.679688 17.761719 3.785156 17.976562 C 3.792969 17.992188 3.792969 17.996094 3.800781 17.996094 C 3.808594 17.996094 3.832031 17.972656 3.847656 17.953125 C 3.996094 17.765625 4.113281 17.5625 4.21875 17.347656 C 4.523438 16.714844 4.65625 16.027344 4.703125 15.644531 C 4.71875 15.535156 4.722656 15.425781 4.734375 15.316406 L 4.9375 12.707031 L 4.957031 12.414062 C 4.960938 12.382812 4.957031 12.378906 4.929688 12.378906 Z M 10.636719 16.128906 C 10.546875 15.9375 10.503906 15.734375 10.503906 15.523438 C 10.5 15.4375 10.472656 15.132812 10.269531 12.46875 C 10.269531 12.441406 10.265625 12.414062 10.257812 12.386719 C 10.253906 12.375 10.207031 12.378906 10.183594 12.378906 L 8.707031 12.378906 C 8.675781 12.378906 8.671875 12.382812 8.675781 12.414062 L 8.695312 12.707031 C 8.773438 13.6875 8.847656 14.664062 8.929688 15.644531 C 8.980469 16.046875 9.113281 16.730469 9.414062 17.347656 C 9.519531 17.5625 9.636719 17.765625 9.785156 17.953125 C 9.800781 17.972656 9.820312 18.003906 9.832031 18.003906 C 9.851562 18 10.574219 16.363281 10.636719 16.242188 C 10.671875 16.171875 10.664062 16.1875 10.636719 16.128906 Z M 14.492188 15.21875 L 13.621094 15.21875 C 13.574219 15.21875 13.539062 15.199219 13.515625 15.160156 C 13.488281 15.121094 13.484375 15.082031 13.503906 15.039062 L 14.679688 12.421875 C 14.691406 12.398438 14.683594 12.386719 14.65625 12.386719 L 13.34375 12.382812 C 13.289062 12.382812 13.246094 12.359375 13.21875 12.316406 C 13.1875 12.269531 13.183594 12.222656 13.207031 12.171875 L 14.082031 10.222656 C 14.09375 10.199219 14.085938 10.1875 14.058594 10.1875 L 12.503906 10.1875 C 12.492188 10.1875 12.480469 10.195312 12.476562 10.203125 L 11.554688 12.265625 C 11.46875 12.433594 11.242188 12.898438 11.15625 13.203125 C 11.136719 13.265625 11.132812 13.328125 11.136719 13.394531 C 11.144531 13.5625 11.21875 13.6875 11.367188 13.769531 C 11.507812 13.847656 11.660156 13.886719 11.824219 13.890625 L 12.414062 13.890625 C 12.453125 13.890625 11.726562 15.367188 11.582031 15.859375 C 11.5625 15.914062 11.554688 15.972656 11.558594 16.027344 C 11.558594 16.207031 11.636719 16.335938 11.789062 16.425781 C 11.9375 16.519531 12.128906 16.546875 12.261719 16.546875 L 13.917969 16.546875 C 13.929688 16.546875 13.9375 16.539062 13.941406 16.53125 L 14.515625 15.253906 C 14.527344 15.226562 14.519531 15.214844 14.492188 15.21875 Z M 7.574219 10.289062 L 6.066406 10.289062 C 6.042969 10.289062 6.03125 10.300781 6.035156 10.324219 C 6.035156 11.371094 6.023438 13.113281 6.023438 17.140625 C 6.023438 17.425781 5.753906 17.402344 5.742188 17.402344 L 5.003906 17.402344 C 4.964844 17.402344 4.960938 17.40625 4.964844 17.449219 C 4.964844 17.484375 5.429688 18.507812 5.519531 18.707031 C 5.527344 18.726562 5.550781 18.742188 5.570312 18.742188 C 5.726562 18.742188 6.335938 18.75 6.507812 18.726562 C 6.660156 18.707031 6.804688 18.667969 6.945312 18.59375 C 7.242188 18.4375 7.433594 18.175781 7.539062 17.832031 C 7.589844 17.660156 7.613281 17.480469 7.613281 17.300781 C 7.613281 14.972656 7.613281 12.648438 7.605469 10.324219 C 7.605469 10.300781 7.59375 10.289062 7.574219 10.289062 Z M 19.335938 17.171875 C 19.335938 17.160156 19.324219 17.152344 19.3125 17.152344 L 17.847656 17.152344 C 17.800781 17.148438 17.800781 17.148438 17.800781 17.101562 L 17.800781 12.453125 C 17.800781 12.378906 17.792969 12.382812 17.871094 12.382812 L 18.730469 12.382812 C 18.808594 12.382812 18.804688 12.386719 18.804688 12.308594 L 18.804688 10.867188 C 18.804688 10.785156 18.8125 10.789062 18.726562 10.789062 L 15.234375 10.789062 C 15.167969 10.789062 15.15625 10.785156 15.15625 10.863281 L 15.15625 12.304688 C 15.15625 12.386719 15.152344 12.382812 15.238281 12.382812 L 16.089844 12.382812 C 16.164062 12.382812 16.160156 12.378906 16.160156 12.453125 L 16.160156 17.066406 C 16.160156 17.160156 16.167969 17.148438 16.074219 17.148438 C 15.707031 17.148438 14.96875 17.148438 14.773438 17.148438 C 14.726562 17.152344 14.714844 17.179688 14.714844 17.179688 L 14.019531 18.695312 C 14.019531 18.695312 14.003906 18.722656 14.011719 18.730469 C 14.015625 18.742188 14.023438 18.738281 14.066406 18.738281 C 15.8125 18.742188 17.554688 18.742188 19.300781 18.742188 C 19.332031 18.742188 19.335938 18.734375 19.335938 18.707031 Z M 23.503906 13.75 C 23.503906 13.761719 23.496094 13.773438 23.484375 13.773438 C 23.140625 13.78125 22.792969 13.777344 22.449219 13.777344 C 22.433594 13.777344 22.425781 13.769531 22.425781 13.753906 C 22.421875 13.320312 22.421875 12.886719 22.417969 12.453125 C 22.417969 12.382812 22.410156 12.382812 22.488281 12.382812 L 23.21875 12.378906 C 23.257812 12.378906 23.300781 12.382812 23.339844 12.394531 C 23.429688 12.421875 23.496094 12.503906 23.503906 12.597656 C 23.507812 13.027344 23.503906 13.75 23.503906 13.75 Z M 26.167969 13.992188 C 25.890625 13.847656 25.597656 13.773438 25.289062 13.773438 L 25.109375 13.773438 C 25.066406 13.769531 25.066406 13.769531 25.066406 13.730469 L 25.066406 12.679688 C 25.066406 12.546875 25.058594 12.417969 25.039062 12.285156 C 25.015625 12.101562 24.964844 11.925781 24.886719 11.757812 C 24.742188 11.445312 24.515625 11.207031 24.210938 11.046875 C 23.902344 10.878906 23.566406 10.796875 23.214844 10.789062 C 23.0625 10.789062 22.648438 10.789062 22.496094 10.789062 C 22.425781 10.789062 22.429688 10.792969 22.429688 10.726562 L 22.429688 10.234375 C 22.429688 10.203125 22.417969 10.191406 22.382812 10.195312 L 20.867188 10.195312 C 20.867188 10.195312 20.851562 10.195312 20.84375 10.203125 C 20.839844 10.207031 20.835938 10.214844 20.835938 10.226562 L 20.835938 10.769531 C 20.828125 10.804688 20.78125 10.785156 20.753906 10.792969 L 19.804688 10.792969 C 19.785156 10.792969 19.777344 10.800781 19.777344 10.824219 L 19.777344 12.300781 C 19.777344 12.390625 19.773438 12.382812 19.859375 12.382812 L 20.769531 12.382812 C 20.851562 12.382812 20.839844 12.511719 20.839844 12.511719 L 20.839844 13.65625 C 20.839844 13.65625 20.84375 13.773438 20.78125 13.773438 L 19.300781 13.773438 C 19.234375 13.773438 19.242188 13.855469 19.242188 13.855469 L 19.242188 15.296875 C 19.242188 15.296875 19.234375 15.367188 19.304688 15.367188 L 20.761719 15.367188 C 20.84375 15.367188 20.835938 15.359375 20.835938 15.445312 L 20.835938 18.664062 C 20.835938 18.75 20.828125 18.742188 20.917969 18.742188 L 22.34375 18.742188 C 22.433594 18.742188 22.425781 18.75 22.425781 18.664062 L 22.425781 15.402344 C 22.425781 15.371094 22.433594 15.367188 22.460938 15.367188 L 24.777344 15.363281 C 24.875 15.363281 24.96875 15.382812 25.058594 15.421875 C 25.234375 15.5 25.324219 15.636719 25.332031 15.828125 C 25.339844 16.222656 25.335938 16.617188 25.335938 17.011719 C 25.335938 17.269531 25.226562 17.378906 25.003906 17.378906 L 23.789062 17.378906 C 23.765625 17.378906 23.761719 17.386719 23.761719 17.410156 C 23.945312 17.847656 24.132812 18.28125 24.332031 18.710938 C 24.339844 18.730469 24.351562 18.738281 24.371094 18.738281 C 24.539062 18.742188 24.710938 18.738281 24.878906 18.742188 C 25.027344 18.738281 25.394531 18.746094 25.542969 18.730469 C 25.683594 18.71875 25.816406 18.695312 25.949219 18.65625 C 26.539062 18.476562 26.925781 17.960938 26.925781 17.34375 L 26.925781 15.367188 C 26.925781 15.242188 26.914062 15.113281 26.890625 14.988281 C 26.890625 15.066406 26.863281 14.351562 26.167969 13.992188 Z M 26.167969 13.992188 " fill-opacity="1" fill-rule="nonzero"/></g></svg>