<svg role="img" viewBox="0 0 240 240" xmlns="http://www.w3.org/2000/svg" id="Xiaohongshu--Streamline-Simple-Icons" height="240" width="240">
  <desc>
    Xiaohongshu Streamline Icon: https://streamlinehq.com
  </desc>
  <title>Xiaohongshu</title>
  <path d="M224.05 98.78999999999999c0.02 0.16 0.1 0.2 0.7000000000000001 0.19h7.25a7.970000000000001 7.970000000000001 0 0 0 7.800000000000001 -9.719999999999999 7.94 7.94 0 0 0 -8.84 -6.18 7.95 7.95 0 0 0 -6.92 7.94c0 1.01 -0.02 6.66 0.01 7.7700000000000005zm-115.09 48.08c-2.0300000000000002 0.01 -13.53 0.04 -16.85 0.03a25.28 25.28 0 0 1 -7.66 -1.26 0.25 0.25 0 0 0 -0.3 0.14L77 161.26999999999998a0.25 0.25 0 0 0 0.1 0.32c1.11 0.6 3.3600000000000003 1.24 4.95 1.24 6.6000000000000005 0.1 13.200000000000001 0.02 19.810000000000002 0 0.1 0 0.2 -0.06 0.22999999999999998 -0.15l7.119999999999999 -15.45a0.25 0.25 0 0 0 -0.24 -0.36zM4.77 99.1c-0.71 0 -0.76 0.02 -0.76 0.1a8.34 8.34 0 0 0 -0.1 0.8c-0.27 3.97 -0.38 4.95 -2.3400000000000003 30.6 -0.12 2.4 -0.34 3.89 -1.35 6.07 -0.26 0.5700000000000001 -0.33 0.42000000000000004 0.03 1.12 0.45999999999999996 0.9199999999999999 6.8100000000000005 15.229999999999999 7.87 17.4 0.08 0.15 0.10999999999999999 0.2 0.17 0.2 0.08 0 0.33 -0.26 0.47 -0.43999999999999995 1.47 -1.87 2.68 -3.91 3.71 -6.06 3.06 -6.35 4.4 -13.25 4.859999999999999 -17.06 0.14 -1.1 0.21000000000000002 -2.2 0.3 -3.3000000000000003l2.04 -26.16 0.21999999999999997 -2.9299999999999997c0.03 -0.29000000000000004 0 -0.33 -0.3 -0.34zm72.03 37.57a14.27 14.27 0 0 1 -1.35 -6.07c-0.04 -0.8400000000000001 -0.31 -3.9000000000000004 -2.3499999999999996 -30.6a4.43 4.43 0 0 0 -0.1 -0.8200000000000001c-0.04 -0.10999999999999999 -0.52 -0.08 -0.76 -0.08h-14.8c-0.3 0.01 -0.34 0.05 -0.3 0.34l0.21000000000000002 2.9299999999999997c0.76 9.82 1.53 19.64 2.33 29.46 0.5 4 1.8599999999999999 10.85 4.87 17.06 1.03 2.15 2.23 4.1899999999999995 3.7 6.06 0.15 0.18 0.37 0.51 0.48 0.49 0.2 -0.03 7.42 -16.419999999999998 8.040000000000001 -17.65 0.36 -0.7000000000000001 0.3 -0.55 0.03 -1.12zm38.61 -9.13h-8.72a1.26 1.26 0 0 1 -1.1600000000000001 -1.7799999999999998l11.78 -26.25a0.25 0.25 0 0 0 -0.22999999999999998 -0.35000000000000003l-13.18 -0.03a1.48 1.48 0 0 1 -1.35 -2.1l8.76 -19.54a0.25 0.25 0 0 0 -0.22999999999999998 -0.35000000000000003h-15.600000000000001c-0.1 0 -0.2 0.06 -0.24 0.15l-9.26 20.68c-0.8500000000000001 1.6900000000000002 -3.14 6.34 -3.99 9.379999999999999a5.34 5.34 0 0 0 -0.2 1.9100000000000001 4.6000000000000005 4.6000000000000005 0 0 0 2.3000000000000003 3.7800000000000002 9.81 9.81 0 0 0 4.6000000000000005 1.19h5.8999999999999995c0.41000000000000003 0 -6.879999999999999 14.82 -8.34 19.72a5.300000000000001 5.300000000000001 0 0 0 -0.22999999999999998 1.7199999999999998 4.65 4.65 0 0 0 2.3000000000000003 3.9800000000000004c1.5 0.9199999999999999 3.4200000000000004 1.2 4.75 1.2l16.599999999999998 -0.01c0.1 0 0.2 -0.06 0.22999999999999998 -0.15l5.75 -12.8a0.25 0.25 0 0 0 -0.24 -0.35000000000000003zm-69.3 -49.370000000000005H31a0.32 0.32 0 0 0 -0.34 0.33c0 10.48 -0.1 27.95 -0.1 68.28999999999999 0 2.88 -2.6900000000000004 2.62 -2.8000000000000003 2.62h-7.4c-0.4 0.01 -0.43999999999999995 0.04 -0.4 0.47 0.01 0.37 4.65 10.64 5.550000000000001 12.629999999999999 0.1 0.2 0.3 0.33 0.51 0.33 1.57 0.03 7.67 0.09 9.379999999999999 -0.14 1.53 -0.2 3 -0.6 4.38 -1.32 3 -1.56 4.9 -4.1899999999999995 5.949999999999999 -7.65 0.52 -1.7199999999999998 0.75 -3.53 0.75 -5.33 0.02 -23.3 0 -46.6 -0.07 -69.91a0.32 0.32 0 0 0 -0.32 -0.32zm117.84 68.96c0 -0.14 -0.1 -0.21000000000000002 -0.24 -0.21999999999999997h-14.65c-0.48 -0.01 -0.49 -0.02 -0.5 -0.49v-46.6c0 -0.72 -0.05 -0.7000000000000001 0.7000000000000001 -0.7000000000000001h8.629999999999999c0.8 0 0.75 0.04 0.75 -0.74V83.93c0 -0.8200000000000001 0.06 -0.76 -0.8 -0.76h-35c-0.64 0 -0.75 -0.06 -0.75 0.73v14.450000000000001c0 0.8300000000000001 -0.06 0.77 0.8 0.77h8.54c0.75 0 0.7000000000000001 -0.04 0.7000000000000001 0.7000000000000001v46.239999999999995c0 0.95 0.08 0.8400000000000001 -0.8500000000000001 0.8400000000000001 -3.7 0 -11.100000000000001 -0.02 -13.040000000000001 0 -0.48 0.01 -0.6 0.3 -0.6 0.3l-6.97 15.19s-0.14 0.25 -0.08 0.36c0.06 0.1 0.13 0.08 0.5800000000000001 0.08 17.48 0.03 34.95 0.02 52.43000000000001 0.02 0.3 -0.01 0.34 -0.06 0.35000000000000003 -0.33v-15.389999999999999zm41.769999999999996 -34.300000000000004c0 0.13 -0.07 0.22999999999999998 -0.2 0.24 -3.46 0.06 -6.92 0.04 -10.37 0.04 -0.14 -0.02 -0.21999999999999997 -0.1 -0.21999999999999997 -0.24 -0.05 -4.34 -0.07 -8.69 -0.1 -13.03 0 -0.72 -0.06 -0.71 0.7000000000000001 -0.7000000000000001l7.33 -0.03c0.41000000000000003 0 0.81 0.02 1.2 0.15 0.9299999999999999 0.25 1.6 1.07 1.6500000000000001 2.04 0.06 4.31 0.02 11.530000000000001 0.01 11.530000000000001zm26.7 2.44a19.53 19.53 0 0 0 -8.83 -2.22h-1.7999999999999998c-0.4 -0.01 -0.4 -0.03 -0.42000000000000004 -0.4V102.10000000000001c0 -1.32 -0.07 -2.63 -0.25 -3.9400000000000004a18.23 18.23 0 0 0 -1.53 -5.300000000000001 15.329999999999998 15.329999999999998 0 0 0 -6.7700000000000005 -7.1 21.669999999999998 21.669999999999998 0 0 0 -10 -2.58c-1.53 -0.03 -5.67 0 -7.199999999999999 0 -0.7000000000000001 0 -0.68 0.04 -0.68 -0.65V77.6c0 -0.31 -0.1 -0.41000000000000003 -0.45999999999999996 -0.39H179.3s-0.16 0 -0.22999999999999998 0.07c-0.06 0.06 -0.08 0.12 -0.08 0.22999999999999998v5.460000000000001c-0.08 0.36 -0.5700000000000001 0.15 -0.8200000000000001 0.21999999999999997h-9.5c-0.21999999999999997 0.02 -0.28 0.08 -0.3 0.32v14.81c0 0.8999999999999999 -0.04 0.8200000000000001 0.8200000000000001 0.8200000000000001h9.13c0.8200000000000001 0 0.72 1.28 0.72 1.28v11.479999999999999s0.03 1.1700000000000002 -0.6 1.1700000000000002h-14.82c-0.68 0 -0.6 0.8200000000000001 -0.6 0.8200000000000001v14.450000000000001s-0.1 0.68 0.64 0.68h14.57c0.8200000000000001 0 0.76 -0.06 0.76 0.79v32.25c0 0.8799999999999999 -0.07 0.81 0.8200000000000001 0.81h14.299999999999999c0.8999999999999999 0 0.8200000000000001 0.07 0.8200000000000001 -0.8v-32.7c0 -0.29000000000000004 0.06 -0.35000000000000003 0.33 -0.35000000000000003l23.23 -0.03c0.98 0 1.9100000000000001 0.2 2.8000000000000003 0.61a4.6000000000000005 4.6000000000000005 0 0 1 2.74 4.069999999999999c0.08 3.95 0.03 7.9 0.03 11.850000000000001 0 2.59 -1.07 3.67 -3.3000000000000003 3.67h-12.18c-0.22999999999999998 0.02 -0.29000000000000004 0.08 -0.28 0.33 1.8399999999999999 4.37 3.74 8.71 5.699999999999999 13.03a0.44999999999999996 0.44999999999999996 0 0 0 0.4 0.26c1.7000000000000002 0.05 3.4000000000000004 0.02 5.1 0.03 1.5 -0.02 5.17 0.04 6.66 -0.1a20.299999999999997 20.299999999999997 0 0 0 4.08 -0.75c5.8999999999999995 -1.7999999999999998 9.75 -6.9799999999999995 9.76 -13.129999999999999v-19.810000000000002c0 -1.28 -0.1 -2.54 -0.34 -3.8 0 0.78 -0.29000000000000004 -6.41 -7.24 -9.98z" fill="#57068c" stroke-width="10"></path>
</svg>